<svg xmlns="http://www.w3.org/2000/svg" viewBox="0 0 1600 900">
  <g stroke="#2f7ec2" stroke-width="0.7" opacity="0.32" fill="none">
        <line x1="120" y1="140" x2="340" y2="90"/>
    <line x1="340" y1="90" x2="300" y2="320"/>
    <line x1="120" y1="140" x2="300" y2="320"/>
    <line x1="300" y1="320" x2="560" y2="220"/>
    <line x1="560" y1="220" x2="760" y2="120"/>
    <line x1="760" y1="120" x2="900" y2="340"/>
    <line x1="900" y1="340" x2="1150" y2="90"/>
    <line x1="1150" y1="90" x2="1300" y2="300"/>
    <line x1="1300" y1="300" x2="1480" y2="180"/>
    <line x1="120" y1="140" x2="60" y2="500"/>
    <line x1="60" y1="500" x2="420" y2="560"/>
    <line x1="420" y1="560" x2="700" y2="620"/>
    <line x1="700" y1="620" x2="980" y2="560"/>
    <line x1="980" y1="560" x2="1220" y2="620"/>
    <line x1="1220" y1="620" x2="1500" y2="520"/>
    <line x1="300" y1="320" x2="420" y2="560"/>
    <line x1="560" y1="220" x2="700" y2="620"/>
    <line x1="900" y1="340" x2="980" y2="560"/>
    <line x1="1300" y1="300" x2="1220" y2="620"/>
    <line x1="1480" y1="180" x2="1500" y2="520"/>
    <line x1="60" y1="500" x2="200" y2="750"/>
    <line x1="420" y1="560" x2="600" y2="800"/>
    <line x1="700" y1="620" x2="600" y2="800"/>
    <line x1="980" y1="560" x2="1050" y2="780"/>
    <line x1="1220" y1="620" x2="1050" y2="780"/>
    <line x1="1500" y1="520" x2="1400" y2="750"/>
    <line x1="1050" y1="780" x2="1400" y2="750"/>
    <line x1="600" y1="800" x2="1050" y2="780"/>
  </g>
  <g fill="none" stroke="#3f8fd6" stroke-width="1.1" opacity="0.4">
        <polygon points="106.4,106.0 133.6,106.0 154.0,126.4 154.0,153.6 133.6,174.0 106.4,174.0 86.0,153.6 86.0,126.4"/>
    <polygon points="333.6,74.0 346.4,74.0 356.0,83.6 356.0,96.4 346.4,106.0 333.6,106.0 324.0,96.4 324.0,83.6"/>
    <polygon points="291.2,298.0 308.8,298.0 322.0,311.2 322.0,328.8 308.8,342.0 291.2,342.0 278.0,328.8 278.0,311.2"/>
    <polygon points="555.2,208.0 564.8,208.0 572.0,215.2 572.0,224.8 564.8,232.0 555.2,232.0 548.0,224.8 548.0,215.2"/>
    <polygon points="748.0,90.0 772.0,90.0 790.0,108.0 790.0,132.0 772.0,150.0 748.0,150.0 730.0,132.0 730.0,108.0"/>
    <polygon points="892.8,322.0 907.2,322.0 918.0,332.8 918.0,347.2 907.2,358.0 892.8,358.0 882.0,347.2 882.0,332.8"/>
    <polygon points="1140.4,66.0 1159.6,66.0 1174.0,80.4 1174.0,99.6 1159.6,114.0 1140.4,114.0 1126.0,99.6 1126.0,80.4"/>
    <polygon points="1294.4,286.0 1305.6,286.0 1314.0,294.4 1314.0,305.6 1305.6,314.0 1294.4,314.0 1286.0,305.6 1286.0,294.4"/>
    <polygon points="1465.6,144.0 1494.4,144.0 1516.0,165.6 1516.0,194.4 1494.4,216.0 1465.6,216.0 1444.0,194.4 1444.0,165.6"/>
    <polygon points="52.0,480.0 68.0,480.0 80.0,492.0 80.0,508.0 68.0,520.0 52.0,520.0 40.0,508.0 40.0,492.0"/>
    <polygon points="414.0,545.0 426.0,545.0 435.0,554.0 435.0,566.0 426.0,575.0 414.0,575.0 405.0,566.0 405.0,554.0"/>
    <polygon points="689.6,594.0 710.4,594.0 726.0,609.6 726.0,630.4 710.4,646.0 689.6,646.0 674.0,630.4 674.0,609.6"/>
    <polygon points="974.8,547.0 985.2,547.0 993.0,554.8 993.0,565.2 985.2,573.0 974.8,573.0 967.0,565.2 967.0,554.8"/>
    <polygon points="1212.0,600.0 1228.0,600.0 1240.0,612.0 1240.0,628.0 1228.0,640.0 1212.0,640.0 1200.0,628.0 1200.0,612.0"/>
    <polygon points="1493.6,504.0 1506.4,504.0 1516.0,513.6 1516.0,526.4 1506.4,536.0 1493.6,536.0 1484.0,526.4 1484.0,513.6"/>
    <polygon points="195.2,738.0 204.8,738.0 212.0,745.2 212.0,754.8 204.8,762.0 195.2,762.0 188.0,754.8 188.0,745.2"/>
    <polygon points="592.8,782.0 607.2,782.0 618.0,792.8 618.0,807.2 607.2,818.0 592.8,818.0 582.0,807.2 582.0,792.8"/>
    <polygon points="1044.4,766.0 1055.6,766.0 1064.0,774.4 1064.0,785.6 1055.6,794.0 1044.4,794.0 1036.0,785.6 1036.0,774.4"/>
    <polygon points="1391.2,728.0 1408.8,728.0 1422.0,741.2 1422.0,758.8 1408.8,772.0 1391.2,772.0 1378.0,758.8 1378.0,741.2"/>
  </g>
</svg>